# xmcd
#
# Track frame offsets: 
#        150
#        6359
#        34403
#        39102
#        48417
#        100563
#        125988
#        144363
#        171194
#        189440
#        238435
#        249745
#        252146
#        292870
#
# Disc length: 4433 seconds
#
# Revision: 1
# Processed by: cddbd v1.5.1PL0 Copyright (c) Steve Scherf et al.
# Submitted via: ExactAudioCopy v0.90b4
#
DISCID=c3114f0e
DTITLE=Estradasphere - Passion For Life - Live
DYEAR=2004
DGENRE=Jazz
TTITLE0=Dissatisfactual Contraband
TTITLE1=Feed Your Mama's Meter
TTITLE2=Planet Sparkle
TTITLE3=Bat Cave
TTITLE4=Hora Bucharestu Vs. Narodno Kolo
TTITLE5=Tugboat
TTITLE6=The Jailing Of Whoolilicious!
TTITLE7=Kiss Tomorrow Goodbye - The Red Chowder Trenchcoat Conspiracy
TTITLE8=Graze-a-holic
TTITLE9=The Danse of Tosho and Slavi - Randy's Desert Adventure
TTITLE10=Elderly Normal Samurai Tortoises
TTITLE11=Boss III
TTITLE12=D-flat Hell
TTITLE13=Body Slam (lounge version)
EXTD=YEAR: 2004
EXTT0=
EXTT1=
EXTT2=
EXTT3=
EXTT4=
EXTT5=
EXTT6=
EXTT7=
EXTT8=
EXTT9=
EXTT10=
EXTT11=
EXTT12=
EXTT13=
PLAYORDER=
